<svg width="120" height="24" fill="none" xmlns="http://www.w3.org/2000/svg"><mask id="a" style="mask-type:luminance" maskUnits="userSpaceOnUse" x="0" y="2" width="120" height="20"><path d="M119.563 2.406H.338v19.185h119.225V2.406Z" fill="#fff"/></mask><g mask="url(#a)" fill="#4B5563"><path d="m75.798 11.096-1.901.455-1.324.302h-.012c0-.358.026-.736.111-1.083.11-.446.35-.967.768-1.196a1.765 1.765 0 0 1 1.49-.085c.498.197.727.68.824 1.18.028.139.045.279.06.42l-.016.007Zm3.453.757c0-3.466-2.176-4.955-4.957-4.955-3.143 0-5.112 2.183-5.112 4.973 0 3.032 1.676 5.007 5.285 5.007 1.951 0 3.056-.346 4.37-1.005l-.5-2.27c-1.002.45-1.935.727-3.179.727-1.364 0-2.141-.52-2.436-1.49h6.442a4.83 4.83 0 0 0 .087-.987ZM46.891 11.096l-1.9.455-1.325.302h-.012c0-.358.026-.736.111-1.083.11-.446.35-.967.769-1.196a1.765 1.765 0 0 1 1.49-.085c.498.197.726.68.823 1.18.028.139.046.279.06.42l-.016.007Zm3.453.757c0-3.466-2.176-4.955-4.957-4.955-3.143 0-5.111 2.183-5.111 4.973 0 3.032 1.676 5.007 5.284 5.007 1.951 0 3.056-.346 4.37-1.005l-.5-2.27c-1.002.45-1.934.727-3.178.727-1.365 0-2.142-.52-2.436-1.49h6.441c.053-.26.087-.555.087-.987ZM38.923 4.352h-3.19v12.177h3.19V4.352ZM79.924 7.21h3.35l.706 2.153c.44-1.063 1.434-2.43 3.195-2.43 2.418 0 3.73 1.231 3.73 4.401v5.198h-3.35c0-1.084.002-2.165.003-3.25 0-.495-.008-.992-.001-1.488.005-.458.038-.932-.206-1.342-.165-.278-.436-.483-.726-.622a1.974 1.974 0 0 0-1.813.027c-.142.076-.832.45-.832.623v6.052h-3.35V9.725l-.706-2.515ZM93.439 9.653h-1.537V7.21h1.537V5.682l3.35-.791V7.21h3.368v2.443h-3.368v2.737c0 1.075.518 1.576 1.295 1.576.794 0 1.244-.104 1.916-.328l.398 2.529c-.915.398-2.055.589-3.213.589-2.436 0-3.748-1.16-3.748-3.414V9.653h.002ZM106.426 14.102c1.227 0 1.951-.885 1.951-2.304 0-1.419-.69-2.235-1.899-2.235-1.226 0-1.934.815-1.934 2.286 0 1.388.69 2.253 1.882 2.253Zm.035-7.258c3.143 0 5.439 1.975 5.439 5.04 0 3.083-2.296 4.937-5.474 4.937-3.161 0-5.406-1.905-5.406-4.937 0-3.065 2.228-5.04 5.441-5.04ZM66.18 7.18a3.67 3.67 0 0 0-1.904-.242 3.125 3.125 0 0 0-.94.288c-.813.402-1.445 1.32-1.785 2.138-.223-.942-.873-1.788-1.823-2.181a3.67 3.67 0 0 0-1.904-.243 3.125 3.125 0 0 0-.94.288c-.81.4-1.442 1.314-1.783 2.13V9.3l-.683-2.087h-3.35l.705 2.515v6.806h3.328v-6.084c.012-.046.16-.13.186-.149.39-.277.849-.564 1.337-.599.498-.037.99.217 1.285.613.032.044.062.088.09.133.243.411.21.885.205 1.343-.005.496.002.992.002 1.489-.002 1.083-.004 2.165-.004 3.248h3.35v-6.075c.008-.043.161-.13.189-.15.39-.278.848-.564 1.336-.6.498-.036.99.217 1.286.614.031.044.061.087.089.133.244.41.21.884.206 1.342-.006.496.001.993.001 1.49-.002 1.083-.003 2.165-.003 3.248h3.35v-5.197c0-1.524-.218-3.487-1.826-4.151ZM119.824 6.934c-1.761 0-2.753 1.368-3.195 2.429l-.706-2.153h-3.35l.705 2.515v6.805h3.351v-6.288c.477-.084 3.068.395 3.559.575V6.946a6.094 6.094 0 0 0-.364-.012ZM30.928 11.096l-1.9.455-1.325.302h-.012c0-.358.026-.736.111-1.083.11-.446.35-.967.769-1.196a1.765 1.765 0 0 1 1.49-.085c.498.197.726.68.823 1.18.028.139.046.279.06.42l-.016.007Zm3.453.757c0-3.466-2.176-4.955-4.957-4.955-3.143 0-5.112 2.183-5.112 4.973 0 3.032 1.676 5.007 5.285 5.007 1.951 0 3.056-.346 4.37-1.005l-.5-2.27c-1.002.45-1.934.727-3.178.727-1.365 0-2.142-.52-2.436-1.49h6.441c.052-.26.087-.555.087-.987ZM9.909 2.406c-5.286 0-9.57 4.298-9.57 9.6 0 5.301 4.284 9.6 9.57 9.6 5.286 0 9.57-4.297 9.57-9.6-.001-5.302-4.286-9.6-9.57-9.6ZM7.517 16.005H5.922v-8h1.595v8Zm6.378 0H9.111v-1.6h4.784v1.6Zm0-3.2H9.111v-1.6h4.784v1.6Zm0-3.2H9.111v-1.6h4.784v1.6Z"/></g></svg>