<svg width="100" height="24" fill="none" xmlns="http://www.w3.org/2000/svg"><g clip-path="url(#a)" fill-rule="evenodd" clip-rule="evenodd"><path d="M8.726 5.648h6.833c3.67 0 5.05 1.84 4.837 4.544-.353 4.462-3.076 6.931-6.689 6.931h-1.824c-.495 0-.829.325-.963 1.206l-.774 5.12c-.051.332-.228.524-.492.55H5.36c-.404 0-.546-.306-.44-.968L7.536 6.618c.102-.657.466-.97 1.189-.97ZM38.393 5.344c2.305 0 4.432 1.239 4.141 4.326-.352 3.67-2.337 5.7-5.468 5.709H34.33c-.393 0-.583.318-.686.97l-.529 3.332c-.08.503-.34.751-.725.751h-2.545c-.406 0-.547-.257-.457-.831l2.1-13.356c.105-.657.354-.901.807-.901h6.098Zm-4.145 7.15h2.072c1.297-.049 2.157-.938 2.244-2.542.053-.991-.623-1.7-1.697-1.695l-1.95.008-.67 4.229Zm15.206 6.916c.233-.21.47-.318.436-.06l-.083.62c-.043.322.086.494.39.494h2.261c.381 0 .566-.152.66-.736l1.393-8.663c.07-.435-.037-.649-.37-.649h-2.487c-.224 0-.334.124-.392.463l-.092.533c-.047.278-.176.327-.296.047-.422-.989-1.498-1.432-2.999-1.397-3.487.071-5.838 2.694-6.09 6.056-.194 2.6 1.686 4.643 4.166 4.643 1.8 0 2.603-.524 3.51-1.346l-.007-.005Zm-1.894-1.333c-1.501 0-2.547-1.187-2.33-2.64.217-1.454 1.62-2.64 3.122-2.64 1.5 0 2.547 1.186 2.33 2.64-.217 1.453-1.62 2.64-3.122 2.64Zm11.377-7.689h-2.293c-.473 0-.665.35-.515.78l2.846 8.258-2.792 3.93c-.234.328-.053.627.277.627h2.577a.795.795 0 0 0 .766-.372l8.756-12.442c.27-.382.143-.784-.3-.784h-2.44c-.418 0-.585.164-.825.508l-3.651 5.242-1.632-5.254c-.095-.318-.333-.493-.773-.493h-.001ZM77.667 5.343c2.306 0 4.433 1.24 4.142 4.327-.353 3.67-2.337 5.7-5.468 5.708h-2.734c-.393 0-.584.319-.686.97l-.53 3.332c-.079.504-.34.752-.724.752H69.12c-.405 0-.546-.257-.456-.832l2.104-13.359c.104-.657.353-.901.806-.901h6.092v.003Zm-4.145 7.15h2.073c1.296-.048 2.157-.938 2.243-2.542.053-.99-.622-1.7-1.696-1.695l-1.951.009-.669 4.228ZM88.73 19.41c.233-.21.469-.318.436-.06l-.083.619c-.043.323.086.494.39.494h2.26c.382 0 .567-.152.66-.735l1.394-8.664c.07-.435-.037-.648-.37-.648h-2.484c-.224 0-.334.124-.392.463l-.091.533c-.048.278-.177.327-.297.047-.421-.989-1.497-1.433-2.998-1.398-3.488.072-5.839 2.695-6.091 6.057-.194 2.6 1.686 4.642 4.166 4.642 1.8 0 2.604-.524 3.51-1.345l-.01-.005Zm-1.893-1.334c-1.5 0-2.547-1.186-2.33-2.64.217-1.454 1.621-2.64 3.122-2.64s2.547 1.186 2.33 2.64c-.217 1.454-1.62 2.64-3.122 2.64Zm10.43 2.401h-2.61a.312.312 0 0 1-.243-.1.304.304 0 0 1-.077-.25l2.293-14.39a.445.445 0 0 1 .434-.35h2.61a.31.31 0 0 1 .31.216.304.304 0 0 1 .01.134L97.7 20.127a.445.445 0 0 1-.434.354v-.004Z" fill="#4B5563"/><path d="M4.452 0h6.84c1.927 0 4.213.061 5.74 1.398 1.021.893 1.558 2.313 1.434 3.844-.42 5.174-3.544 8.073-7.735 8.073H7.36c-.575 0-.954.377-1.117 1.398l-.942 5.94c-.061.385-.229.612-.529.64H.551c-.468 0-.634-.35-.512-1.121L3.073 1.129C3.194.363 3.619 0 4.453 0Z" fill="#ADB2BD"/><path d="m6.341 14.11 1.194-7.49c.104-.657.468-.972 1.19-.972h6.834c1.13 0 2.046.175 2.763.498-.687 4.606-3.694 7.165-7.631 7.165H7.324c-.452.001-.784.225-.983.8Z" fill="#ADB2BD"/></g><defs><clipPath id="a"><path fill="#fff" d="M0 0h100v24H0z"/></clipPath></defs></svg>