<svg width="62" height="26" fill="none" xmlns="http://www.w3.org/2000/svg"><g clip-path="url(#a)" fill="#4B5563"><path fill-rule="evenodd" clip-rule="evenodd" d="M61.847 13.369c0-4.383-2.12-7.842-6.17-7.842-4.069 0-6.53 3.459-6.53 7.808 0 5.153 2.906 7.756 7.077 7.756 2.034 0 3.572-.463 4.735-1.113v-3.424c-1.163.582-2.496.941-4.188.941-1.659 0-3.129-.582-3.317-2.602h8.36c0-.223.033-1.113.033-1.524Zm-8.444-1.627c0-1.934 1.18-2.739 2.257-2.739 1.042 0 2.153.805 2.153 2.74h-4.41ZM42.548 5.527c-1.675 0-2.752.788-3.35 1.336L38.976 5.8h-3.76v19.964l4.273-.907.017-4.846c.615.445 1.521 1.079 3.025 1.079 3.06 0 5.846-2.466 5.846-7.893-.017-4.965-2.837-7.67-5.829-7.67Zm-1.025 11.797c-1.009 0-1.607-.36-2.017-.805l-.017-6.352c.444-.496 1.06-.839 2.034-.839 1.555 0 2.632 1.747 2.632 3.99 0 2.294-1.06 4.006-2.632 4.006ZM29.335 4.517l4.29-.924V.117l-4.29.908v3.492Z"/><path d="M33.625 5.82h-4.29v14.982h4.29V5.82Z"/><path fill-rule="evenodd" clip-rule="evenodd" d="m24.736 7.085-.273-1.267H20.77v14.98h4.273V10.647c1.009-1.319 2.718-1.079 3.248-.89V5.818c-.547-.206-2.547-.583-3.556 1.267ZM16.19 2.102l-4.172.89-.017 13.714c0 2.534 1.898 4.4 4.428 4.4 1.402 0 2.427-.256 2.991-.565v-3.475c-.547.222-3.248 1.01-3.248-1.524V9.464h3.248V5.817h-3.248l.017-3.715ZM4.634 10.167c0-.667.547-.924 1.453-.924 1.299 0 2.94.393 4.24 1.095V6.316c-1.42-.565-2.821-.788-4.24-.788-3.47 0-5.778 1.815-5.778 4.846 0 4.725 6.496 3.972 6.496 6.01 0 .787-.684 1.044-1.641 1.044-1.419 0-3.231-.582-4.667-1.37v4.075c1.59.685 3.197.976 4.667.976 3.555 0 6-1.764 6-4.828-.017-5.103-6.53-4.195-6.53-6.113Z"/></g><defs><clipPath id="a"><path fill="#fff" d="M0 0h62v26H0z"/></clipPath></defs></svg>