<svg width="129" height="24" fill="none" xmlns="http://www.w3.org/2000/svg"><g clip-path="url(#a)" fill-rule="evenodd" clip-rule="evenodd" fill="#4B5563"><path d="M12.315 23.939c6.526 0 11.816-5.359 11.816-11.97C24.13 5.36 18.84 0 12.315 0 5.79 0 .5 5.359.5 11.97c0 6.61 5.29 11.969 11.815 11.969Zm.051-17.954c-.948 0-2.261.55-2.932 1.227L7.612 9.054h9.081l3.037-3.07h-7.364Zm2.816 10.742c-.671.677-1.984 1.227-2.933 1.227H4.885l3.037-3.069h9.082l-1.822 1.842Zm2.951-6.139H6.097l-.569.576c-1.346 1.228-.947 2.187.939 2.187h12.069l.569-.576c1.333-1.22.914-2.187-.972-2.187ZM90.923 15.634c-.937 1.68-2.632 3.319-5.542 3.319-4.007 0-7.096-2.834-7.096-6.982 0-4.17 3.09-6.983 7.096-6.983 2.91 0 4.605 1.6 5.542 3.3L88.49 9.5c-.558-1.092-1.754-1.963-3.11-1.963-2.432 0-4.186 1.882-4.186 4.432 0 2.55 1.754 4.433 4.186 4.433 1.356 0 2.552-.87 3.11-1.963l2.432 1.194ZM99.747 5.21l5.123 13.499h-3.209l-.837-2.287h-5.701l-.838 2.287h-3.21L96.2 5.21h3.548ZM95.9 13.893h4.146l-2.073-5.808-2.073 5.808Zm20.982 4.817-3.01-5.14c1.435-.345 2.931-1.64 2.931-4.008 0-2.51-1.715-4.351-4.486-4.351h-6.219V18.71h2.831v-4.797h2.073l2.611 4.797h3.269Zm-4.963-7.326h-2.99V7.74h2.99c1.116 0 1.973.688 1.973 1.8 0 1.154-.857 1.843-1.973 1.843Zm12.714-3.643V18.71h-2.851V7.74h-3.887V5.21H128.5v2.53h-3.867Zm-93.576 7.623-1.018 1.492c1.322 1.398 3.08 2.097 5.276 2.097 1.622 0 2.879-.377 3.77-1.13.898-.76 1.348-1.724 1.348-2.889 0-.699-.15-1.304-.45-1.814-.3-.511-.687-.9-1.163-1.17a7.719 7.719 0 0 0-1.574-.699 17.15 17.15 0 0 0-1.733-.47 26.43 26.43 0 0 1-1.573-.417c-.468-.152-.851-.358-1.15-.618a1.27 1.27 0 0 1-.45-.981c0-.6.264-1.098.793-1.492.53-.403 1.23-.605 2.103-.605.829 0 1.582.157 2.261.47.688.305 1.235.709 1.64 1.21l.939-1.424c-1.234-1.29-2.848-1.936-4.84-1.936-1.508 0-2.694.368-3.558 1.102-.864.726-1.296 1.636-1.296 2.729 0 .663.15 1.236.45 1.72.3.475.688.842 1.164 1.102.476.26 1 .48 1.573.659.582.179 1.16.336 1.733.47.573.135 1.098.282 1.574.444.476.161.864.39 1.163.685.3.296.45.659.45 1.089 0 .68-.278 1.232-.833 1.653-.547.421-1.31.632-2.288.632a5.65 5.65 0 0 1-2.447-.551c-.775-.368-1.397-.82-1.864-1.358Zm11.599-10.04v9.382c0 2.83 1.389 4.247 4.166 4.247.917 0 1.785-.21 2.605-.632.82-.421 1.503-.945 2.05-1.573v1.869h2.037V5.324h-2.037v9.771c-.397.565-.948 1.04-1.653 1.425a4.52 4.52 0 0 1-2.195.578c-.961 0-1.693-.224-2.196-.672-.502-.457-.754-1.241-.754-2.352v-8.75h-2.023ZM56.49 18.617V5.324h2.024v2.124a6.832 6.832 0 0 1 1.97-1.76 4.59 4.59 0 0 1 2.394-.673V7.14a7.232 7.232 0 0 0-.78-.054c-.626 0-1.305.22-2.037.659-.732.43-1.248.918-1.547 1.465v9.408H56.49ZM64.4 8.456c-.547 1.057-.82 2.222-.82 3.494 0 2.07.626 3.755 1.878 5.054 1.252 1.299 2.856 1.949 4.814 1.949 2.08 0 3.813-.69 5.197-2.07l-.965-1.344a5.487 5.487 0 0 1-1.865 1.263 5.656 5.656 0 0 1-2.209.444c-1.357 0-2.46-.44-3.306-1.317-.837-.879-1.296-1.972-1.375-3.28h10.566v-.524c0-1.344-.246-2.55-.74-3.615a5.94 5.94 0 0 0-2.169-2.567c-.961-.637-2.085-.955-3.373-.955-1.225 0-2.332.314-3.319.941A6.416 6.416 0 0 0 64.4 8.456Zm9.905 2.648h-8.583c.027-.52.137-1.03.33-1.533.195-.51.46-.98.794-1.41a3.786 3.786 0 0 1 1.336-1.063 4.08 4.08 0 0 1 1.825-.403c.714 0 1.353.14 1.918.417.564.269 1.014.623 1.349 1.062.335.439.586.91.753 1.41.177.503.27 1.009.278 1.52Z"/></g><defs><clipPath id="a"><path fill="#fff" transform="translate(.5)" d="M0 0h128v24H0z"/></clipPath></defs></svg>