<svg width="121" height="24" fill="none" xmlns="http://www.w3.org/2000/svg"><g clip-path="url(#a)" fill="#4B5563"><path fill-rule="evenodd" clip-rule="evenodd" d="M37.36 0H4.271C2.18 0 .484 1.682.5 3.723v12.41c0 2.058 1.695 3.723 3.79 3.723h15.67l7.162 3.92-1.628-3.92h11.865c2.094 0 3.79-1.665 3.79-3.723V3.723c0-2.057-1.696-3.723-3.79-3.723ZM3.574 2.874c-.466.033-.815.196-1.047.506-.233.294-.316.67-.266 1.094.98 6.124 1.894 10.255 2.742 12.394.332.784.714 1.16 1.163 1.127.698-.05 1.529-.996 2.51-2.842a303.715 303.715 0 0 1 2.392-4.702c.898 3.086 2.127 5.405 3.673 6.956.432.44.88.637 1.313.604.382-.033.681-.229.88-.588.167-.31.233-.67.2-1.077-.1-1.486.05-3.56.465-6.222.432-2.743.964-4.72 1.612-5.895.133-.245.183-.49.166-.784a1.273 1.273 0 0 0-.515-.93 1.461 1.461 0 0 0-1.047-.327c-.482.033-.847.261-1.096.719-1.03 1.845-1.762 4.833-2.194 8.98-.632-1.567-1.163-3.412-1.579-5.584-.183-.963-.631-1.42-1.362-1.372-.499.033-.915.36-1.247.98l-3.64 6.81C6.102 10.352 5.536 7.461 5.02 4.05c-.116-.85-.598-1.241-1.445-1.176ZM35.598 4.05c1.18.245 2.06.865 2.659 1.894.532.882.797 1.943.797 3.217a8.635 8.635 0 0 1-1.296 4.62c-.997 1.634-2.293 2.45-3.905 2.45a4.44 4.44 0 0 1-.898-.098c-1.18-.245-2.06-.865-2.658-1.894-.532-.898-.798-1.976-.798-3.233 0-1.682.432-3.217 1.296-4.605 1.014-1.633 2.31-2.45 3.905-2.45.283 0 .582.033.898.099Zm-.698 8.834c.615-.54 1.03-1.34 1.263-2.417.066-.376.116-.784.116-1.208 0-.474-.1-.98-.299-1.486-.25-.637-.582-.98-.98-1.062-.599-.114-1.18.213-1.729 1.013a5.234 5.234 0 0 0-.88 1.943 5.576 5.576 0 0 0-.117 1.192c0 .473.1.98.3 1.486.249.637.58.98.98 1.061.415.082.864-.098 1.346-.522Zm-7.063-6.94c-.598-1.029-1.496-1.65-2.659-1.894a4.438 4.438 0 0 0-.897-.098c-1.595 0-2.892.816-3.905 2.45-.865 1.387-1.297 2.922-1.297 4.604 0 1.257.266 2.335.798 3.233.598 1.029 1.479 1.65 2.659 1.894.316.066.615.098.897.098 1.612 0 2.908-.816 3.905-2.45a8.635 8.635 0 0 0 1.297-4.62c0-1.274-.266-2.335-.798-3.217Zm-2.094 4.523c-.232 1.078-.648 1.878-1.263 2.417-.482.424-.93.604-1.346.522-.399-.081-.731-.424-.98-1.061-.2-.506-.3-1.013-.3-1.486 0-.408.034-.816.117-1.192.15-.67.432-1.323.88-1.943.549-.8 1.13-1.127 1.729-1.013.399.082.731.425.98 1.062.2.506.3 1.012.3 1.486 0 .424-.034.832-.117 1.208Z"/><path d="M45.353 5.796c-1.114 1.078-1.662 2.45-1.662 4.115 0 1.78.548 3.233 1.645 4.328 1.097 1.094 2.526 1.649 4.304 1.649a6.36 6.36 0 0 0 1.728-.262v-2.645c-.581.163-1.08.245-1.512.245-.88 0-1.579-.294-2.11-.865-.532-.588-.798-1.372-.798-2.368 0-.93.266-1.698.781-2.286.532-.604 1.18-.898 1.978-.898.515 0 1.063.081 1.661.245V4.408a7.059 7.059 0 0 0-1.811-.212c-1.695-.016-3.091.523-4.204 1.6ZM56.886 4.18c-1.53 0-2.726.506-3.59 1.502-.864.996-1.28 2.4-1.28 4.197 0 1.943.433 3.429 1.28 4.457.848 1.03 2.094 1.552 3.723 1.552 1.578 0 2.791-.523 3.639-1.552.847-1.028 1.28-2.482 1.28-4.343 0-1.862-.433-3.299-1.297-4.311-.88-.996-2.127-1.502-3.755-1.502Zm1.312 8.49c-.299.458-.747.687-1.312.687-.532 0-.931-.229-1.214-.686-.282-.457-.415-1.372-.415-2.76 0-2.139.548-3.2 1.662-3.2 1.163 0 1.761 1.077 1.761 3.25-.016 1.338-.182 2.253-.482 2.71Zm11.949-8.18-.598 2.498c-.15.637-.3 1.29-.432 1.96l-.333 1.73c-.316-1.73-.748-3.788-1.296-6.188h-3.855l-1.446 11.12h2.891l.781-7.658 1.978 7.658h2.06l1.895-7.642.814 7.642h3.025L74.102 4.49h-3.955Zm13.843 0-.598 2.498c-.15.637-.3 1.29-.432 1.96l-.333 1.73c-.316-1.73-.748-3.788-1.296-6.188h-3.856L76.03 15.61h2.891l.781-7.658 1.978 7.658h2.06l1.878-7.642.815 7.642h3.024L87.928 4.49H83.99Zm9.406 6.728h2.709V8.915h-2.71V6.874h3.125V4.506h-6.182v11.12h6.199V13.26h-3.141v-2.041Zm11.749-1.764c.316-.506.482-1.029.482-1.568 0-1.045-.416-1.877-1.247-2.482-.831-.604-1.977-.914-3.406-.914h-3.557v11.12h3.058v-5.062h.05l2.476 5.062h3.224l-2.443-5.013c.582-.261 1.047-.637 1.363-1.143Zm-4.687-.18V6.63c.732.016 1.247.13 1.563.36.315.228.465.587.465 1.11 0 .767-.681 1.16-2.028 1.175Zm6.963-3.478c-1.113 1.078-1.661 2.45-1.661 4.115 0 1.78.548 3.233 1.645 4.328 1.097 1.094 2.525 1.649 4.304 1.649.515 0 1.097-.082 1.728-.262v-2.645c-.581.163-1.08.245-1.512.245-.881 0-1.578-.294-2.11-.865-.532-.588-.798-1.372-.798-2.368 0-.93.266-1.698.781-2.286.532-.604 1.18-.898 1.977-.898.515 0 1.064.081 1.662.245V4.408a7.054 7.054 0 0 0-1.811-.212c-1.679-.016-3.091.523-4.205 1.6Zm9.922 7.43v-2.025h2.708V8.9h-2.708V6.858h3.14V4.49h-6.182v11.12h6.199v-2.368h-3.157v-.016Z"/></g><defs><clipPath id="a"><path fill="#fff" transform="translate(.5)" d="M0 0h120v24H0z"/></clipPath></defs></svg>