<svg width="40" height="40" fill="none" xmlns="http://www.w3.org/2000/svg"><rect width="40" height="40" rx="2" fill="#fff"/><g clip-path="url(#a)"><path d="M10.227 23h19.536C30.999 23 32 24 32 25.237v7.457c0 1.236-1 2.237-2.237 2.237h-7.006l.962 2.355-4.23-2.355h-9.252c-1.236 0-2.237-1-2.237-2.237v-7.457A2.228 2.228 0 0 1 10.227 23Z" fill="#8054B3"/><path d="M9.367 25.039c.137-.186.342-.283.615-.303.497-.039.78.195.849.703.302 2.039.634 3.765.985 5.18l2.136-4.068c.196-.37.44-.566.732-.585.43-.03.693.243.8.82.244 1.297.556 2.4.927 3.336.254-2.478.683-4.264 1.288-5.366.146-.273.36-.41.644-.43.224-.019.429.05.614.196a.764.764 0 0 1 .303.556.847.847 0 0 1-.098.468c-.38.703-.692 1.883-.946 3.522-.244 1.59-.332 2.83-.273 3.717.02.244-.02.459-.117.644a.629.629 0 0 1-.517.351c-.254.02-.517-.097-.771-.36-.907-.928-1.63-2.313-2.156-4.157a183.024 183.024 0 0 0-1.405 2.81c-.576 1.102-1.063 1.668-1.473 1.697-.264.02-.488-.205-.683-.673-.498-1.278-1.034-3.746-1.61-7.405a.831.831 0 0 1 .156-.653Zm20.966 1.531c-.35-.614-.868-.985-1.56-1.131a2.563 2.563 0 0 0-.527-.059c-.937 0-1.698.488-2.293 1.463a5.17 5.17 0 0 0-.761 2.752c0 .75.156 1.395.468 1.931.351.615.869.986 1.561 1.132.186.04.361.059.527.059.946 0 1.707-.488 2.293-1.464a5.227 5.227 0 0 0 .76-2.76c.01-.762-.155-1.396-.468-1.923Zm-1.229 2.703c-.136.644-.38 1.122-.741 1.444-.283.253-.547.36-.79.312-.235-.049-.43-.254-.576-.634a2.475 2.475 0 0 1-.176-.888c0-.244.02-.488.068-.712.088-.4.254-.79.518-1.161.322-.478.663-.673 1.014-.605.234.049.43.254.576.634.117.302.175.605.175.888 0 .254-.02.497-.068.722Zm-4.878-2.703c-.351-.614-.878-.985-1.561-1.131a2.561 2.561 0 0 0-.527-.059c-.936 0-1.697.488-2.292 1.463a5.169 5.169 0 0 0-.761 2.752c0 .75.156 1.395.468 1.931.351.615.868.986 1.56 1.132.186.04.362.059.528.059.946 0 1.707-.488 2.292-1.464a5.228 5.228 0 0 0 .761-2.76c0-.762-.156-1.396-.468-1.923Zm-1.239 2.703c-.137.644-.38 1.122-.741 1.444-.283.253-.547.36-.79.312-.235-.049-.43-.254-.576-.634a2.475 2.475 0 0 1-.176-.888c0-.244.02-.488.068-.712.088-.4.254-.79.517-1.161.322-.478.664-.673 1.015-.605.234.049.43.254.576.634.117.302.175.605.175.888.01.254-.02.497-.068.722Z" fill="#fff"/></g><g clip-path="url(#b)"><path d="m33.318 4.191-1.006 6.303a.161.161 0 0 0 .16.186h1.19a.176.176 0 0 0 .176-.147l1.005-6.302a.161.161 0 0 0-.16-.187h-1.19a.174.174 0 0 0-.175.147Zm-1.271 1.84h-1.13a.175.175 0 0 0-.174.146l-.037.232s-.877-.948-2.43-.307c-.89.367-1.319 1.125-1.5 1.68 0 0-.578 1.69.728 2.619 0 0 1.211.893 2.575-.055l-.024.148a.16.16 0 0 0 .093.171.16.16 0 0 0 .068.015h1.13a.174.174 0 0 0 .175-.147l.688-4.316a.158.158 0 0 0-.038-.13.162.162 0 0 0-.124-.057Zm-1.662 2.385a1.25 1.25 0 0 1-.43.774 1.273 1.273 0 0 1-.838.3c-.12.002-.24-.016-.355-.051a.99.99 0 0 1-.686-1.121c.045-.302.198-.577.43-.774.235-.198.532-.305.839-.301.12-.002.24.016.355.052.49.154.767.618.687 1.121h-.002Zm-6.03.119c.613 0 1.206-.217 1.67-.612.465-.393.772-.94.867-1.54.198-1.248-.787-2.337-2.183-2.337h-2.25a.176.176 0 0 0-.174.147l-1.006 6.302a.16.16 0 0 0 .093.172c.022.01.045.015.068.015h1.191a.176.176 0 0 0 .175-.147l.295-1.851a.173.173 0 0 1 .175-.148l1.08-.001Zm.997-2.208c-.073.462-.434.801-1.123.801h-.882l.268-1.678h.866c.712.001.944.417.87.878v-.001Z" fill="#0070E0"/><path d="M19.922 6.137 18.56 8.414l-.691-2.26a.173.173 0 0 0-.168-.124h-1.23a.132.132 0 0 0-.132.112c-.003.02 0 .042.007.062l1.238 3.806-1.12 1.794a.13.13 0 0 0 .113.2H17.9a.22.22 0 0 0 .189-.106l3.46-5.667a.127.127 0 0 0 .002-.133.13.13 0 0 0-.116-.065h-1.323a.22.22 0 0 0-.19.104Zm-4.147-.107h-1.13a.176.176 0 0 0-.175.148l-.037.232s-.878-.949-2.43-.308c-.891.367-1.319 1.125-1.5 1.681 0 0-.578 1.688.728 2.618 0 0 1.211.894 2.575-.055l-.024.148a.16.16 0 0 0 .093.171.16.16 0 0 0 .068.015h1.13a.176.176 0 0 0 .175-.147l.687-4.316a.16.16 0 0 0-.092-.172.163.163 0 0 0-.068-.015Zm-1.662 2.386a1.252 1.252 0 0 1-.43.773 1.276 1.276 0 0 1-.838.301c-.12.002-.24-.016-.354-.051a.99.99 0 0 1-.686-1.121c.045-.302.198-.578.432-.775.235-.198.533-.305.84-.3.12-.002.24.016.356.052a.988.988 0 0 1 .681 1.121h-.001Zm-6.03.12c.612-.001 1.203-.218 1.669-.613.464-.393.77-.94.865-1.54.198-1.247-.787-2.337-2.182-2.337h-2.25a.176.176 0 0 0-.175.147l-1.002 6.3a.16.16 0 0 0 .093.172c.02.01.044.015.068.015h1.19a.176.176 0 0 0 .175-.147l.295-1.85a.173.173 0 0 1 .174-.148h1.08Zm.997-2.21c-.074.462-.434.802-1.123.802h-.882l.267-1.678h.866c.713.001.945.418.872.878v-.001Z" fill="#003087"/></g><path d="M8.283 18v-2.668h1.172c.27 0 .482.08.639.242.156.16.234.358.234.594a.82.82 0 0 1-.236.596c-.156.16-.369.24-.637.24h-.703V18h-.469Zm.469-1.408h.64c.133 0 .242-.04.327-.117a.395.395 0 0 0 .129-.307.395.395 0 0 0-.13-.307.462.462 0 0 0-.325-.117h-.641v.848Zm1.756.816a.65.65 0 0 1 .058-.283.524.524 0 0 1 .159-.197.735.735 0 0 1 .455-.149c.273 0 .48.083.623.248v-.287a.312.312 0 0 0-.125-.261.51.51 0 0 0-.326-.098.795.795 0 0 0-.573.242l-.172-.291c.22-.208.491-.313.813-.313.112 0 .214.014.307.04a.781.781 0 0 1 .253.117.524.524 0 0 1 .178.219.767.767 0 0 1 .065.326V18h-.42v-.207a.724.724 0 0 1-.272.19.908.908 0 0 1-.351.066.777.777 0 0 1-.455-.158.578.578 0 0 1-.159-.203.65.65 0 0 1-.058-.28Zm.424.008a.31.31 0 0 0 .115.25.46.46 0 0 0 .297.094.69.69 0 0 0 .265-.051.457.457 0 0 0 .194-.148v-.293a.442.442 0 0 0-.194-.147.667.667 0 0 0-.265-.053.454.454 0 0 0-.297.096.308.308 0 0 0-.115.252Zm1.556-1.348h.447l.565 1.448.565-1.448h.45l-.931 2.28a.657.657 0 0 1-.26.332.792.792 0 0 1-.404.103.944.944 0 0 1-.236-.027l.064-.375a.4.4 0 0 0 .16.031.335.335 0 0 0 .168-.037.264.264 0 0 0 .108-.13l.095-.222-.79-1.955ZM14.78 18v-1.932h.42v.264a.723.723 0 0 1 .25-.21.759.759 0 0 1 .38-.102.57.57 0 0 1 .34.095c.09.064.153.151.186.262a.78.78 0 0 1 .272-.25.743.743 0 0 1 .385-.107c.18 0 .317.048.412.146.096.098.144.244.144.438V18h-.42v-1.26a.38.38 0 0 0-.078-.254c-.05-.062-.13-.093-.238-.093a.468.468 0 0 0-.254.078.64.64 0 0 0-.193.177V18h-.422v-1.26c0-.231-.106-.347-.318-.347a.464.464 0 0 0-.252.078.649.649 0 0 0-.194.181V18h-.42Zm3.213-.969c0-.185.041-.354.123-.508a.96.96 0 0 1 .857-.504c.287 0 .517.1.69.297.175.197.262.449.262.756v.1h-1.492c.017.152.08.28.187.38.11.101.252.151.428.151a.864.864 0 0 0 .297-.055.69.69 0 0 0 .252-.156l.191.276a.954.954 0 0 1-.346.209 1.298 1.298 0 0 1-.437.072.996.996 0 0 1-.727-.281c-.19-.19-.285-.435-.285-.737Zm.436-.154h1.088a.55.55 0 0 0-.037-.176.57.57 0 0 0-.094-.166.435.435 0 0 0-.17-.125.59.59 0 0 0-.242-.047.57.57 0 0 0-.235.047.44.44 0 0 0-.168.123.605.605 0 0 0-.143.344ZM20.338 18v-1.932h.42v.264a.924.924 0 0 1 .68-.313c.205 0 .36.054.466.16.106.108.159.261.159.462V18h-.42v-1.207c0-.143-.034-.245-.102-.307-.066-.062-.162-.093-.287-.093a.563.563 0 0 0-.285.076.632.632 0 0 0-.211.183V18h-.42Zm2.033-1.564v-.368h.32v-.529h.42v.53h.393v.367h-.393v1.011c0 .068.017.123.05.166a.164.164 0 0 0 .136.063.31.31 0 0 0 .11-.02.217.217 0 0 0 .077-.049l.1.317c-.087.083-.22.125-.396.125-.162 0-.285-.043-.37-.127-.084-.086-.127-.21-.127-.37v-1.116h-.32Zm1.346 1.312.193-.305c.073.075.17.139.291.194.123.053.244.08.363.08a.467.467 0 0 0 .282-.072.223.223 0 0 0 .1-.19.156.156 0 0 0-.065-.127.458.458 0 0 0-.168-.078 2.91 2.91 0 0 0-.227-.055 2.53 2.53 0 0 1-.25-.064 1.174 1.174 0 0 1-.228-.098.462.462 0 0 1-.166-.166.502.502 0 0 1-.065-.26c0-.165.068-.304.203-.418.136-.113.321-.17.557-.17.296 0 .546.092.752.274l-.176.295a.646.646 0 0 0-.244-.168.834.834 0 0 0-.328-.065.458.458 0 0 0-.262.067c-.065.044-.097.1-.097.17 0 .04.016.075.049.103.033.029.078.051.132.067l.188.05.215.05a1.007 1.007 0 0 1 .402.177.42.42 0 0 1 .13.166c.035.07.052.151.052.242 0 .176-.071.32-.213.434-.142.112-.34.168-.592.168a1.36 1.36 0 0 1-.465-.078 1.004 1.004 0 0 1-.363-.223ZM26.81 18v-2.668h1.828v.412h-1.36v.692h1.332v.412H27.28V18h-.468Zm2.115-.969c0-.138.023-.268.07-.39a.994.994 0 0 1 .195-.323.897.897 0 0 1 .315-.218c.125-.054.262-.08.412-.08a1 1 0 0 1 .53.138c.153.093.269.215.347.367.08.151.12.32.12.506 0 .188-.04.358-.12.512a.906.906 0 0 1-.348.367 1 1 0 0 1-.529.139 1.04 1.04 0 0 1-.412-.08.933.933 0 0 1-.315-.219 1.017 1.017 0 0 1-.195-.324 1.103 1.103 0 0 1-.07-.395Zm.435 0c0 .18.05.332.15.457.101.125.236.188.407.188.173 0 .31-.062.408-.186a.71.71 0 0 0 .15-.459c0-.178-.05-.33-.15-.453a.494.494 0 0 0-.408-.185.496.496 0 0 0-.406.185.697.697 0 0 0-.15.453Zm1.977.969v-1.932h.42v.284a.932.932 0 0 1 .281-.237.708.708 0 0 1 .348-.092v.416a.618.618 0 0 0-.416.066c-.1.052-.171.11-.213.179V18h-.42Z" fill="#225DAD"/><rect x="6.15" y="14.15" width="28.7" height="5.7" rx=".85" stroke="#225DAD" stroke-width=".3"/><defs><clipPath id="a"><path fill="#fff" transform="translate(8 23)" d="M0 0h24v14.344H0z"/></clipPath><clipPath id="b"><path fill="#fff" transform="translate(5 4)" d="M0 0h30v8.01H0z"/></clipPath></defs></svg>