<svg width="40" height="40" fill="none" xmlns="http://www.w3.org/2000/svg"><path fill="#6736A1" d="M0 0h40v40H0z"/><path fill-rule="evenodd" clip-rule="evenodd" d="M35 10.467c0-2.139-1.033-3.826-3.008-3.826-1.983 0-3.183 1.687-3.183 3.81 0 2.514 1.416 3.784 3.45 3.784.991 0 1.741-.225 2.308-.543v-1.67c-.567.283-1.217.459-2.042.459-.808 0-1.525-.284-1.616-1.27h4.075c0-.109.016-.543.016-.744Zm-4.116-.793c0-.945.575-1.337 1.1-1.337.508 0 1.05.392 1.05 1.337h-2.15ZM25.59 6.64c-.816 0-1.341.385-1.633.652l-.108-.518h-1.833v9.742l2.083-.442.008-2.365c.3.217.742.526 1.475.526 1.492 0 2.85-1.203 2.85-3.851-.008-2.423-1.383-3.743-2.841-3.743Zm-.5 5.757c-.491 0-.783-.175-.983-.392l-.008-3.1c.217-.242.517-.41.992-.41.758 0 1.283.853 1.283 1.947 0 1.12-.517 1.955-1.283 1.955ZM19.15 6.147l2.091-.45V4l-2.092.443v1.704Z" fill="#fff"/><path d="M21.241 6.782H19.15v7.31h2.092v-7.31Z" fill="#fff"/><path fill-rule="evenodd" clip-rule="evenodd" d="m16.909 7.4-.133-.617h-1.8v7.31h2.083V9.14c.492-.644 1.325-.527 1.583-.435V6.783c-.266-.1-1.241-.284-1.733.618ZM12.74 4.97l-2.032.434-.009 6.693c0 1.236.925 2.147 2.159 2.147.683 0 1.183-.126 1.458-.276v-1.696c-.267.109-1.583.493-1.583-.744V8.563h1.583v-1.78h-1.583l.008-1.812ZM7.108 8.905c0-.326.267-.451.709-.451.633 0 1.433.192 2.066.534V7.025a5.483 5.483 0 0 0-2.066-.384C6.125 6.64 5 7.526 5 9.005c0 2.306 3.167 1.938 3.167 2.933 0 .384-.334.51-.8.51-.692 0-1.575-.285-2.275-.669v1.989a5.764 5.764 0 0 0 2.275.476c1.733 0 2.925-.86 2.925-2.356-.009-2.49-3.184-2.047-3.184-2.983Z" fill="#fff"/><g clip-path="url(#a)"><path d="M7.784 19h24.42A2.795 2.795 0 0 1 35 21.796v9.322a2.795 2.795 0 0 1-2.796 2.796h-8.757l1.202 2.944-5.287-2.944H7.797A2.795 2.795 0 0 1 5 31.118v-9.322A2.785 2.785 0 0 1 7.784 19Z" fill="#fff"/><path d="M6.709 21.549c.17-.232.427-.354.768-.378.622-.05.976.244 1.061.878.378 2.548.793 4.707 1.232 6.475l2.67-5.085c.245-.463.55-.707.915-.732.537-.036.866.305 1 1.025.305 1.622.695 3 1.159 4.17.317-3.097.853-5.329 1.61-6.707.183-.341.45-.512.804-.537.28-.024.537.061.769.244a.955.955 0 0 1 .378.695c.012.22-.025.403-.122.586-.476.878-.866 2.354-1.183 4.402-.305 1.988-.415 3.537-.341 4.646.024.305-.025.574-.147.805-.146.269-.366.415-.646.44-.317.024-.647-.123-.964-.452-1.134-1.158-2.036-2.89-2.695-5.195a229.184 229.184 0 0 0-1.756 3.512c-.72 1.378-1.329 2.086-1.841 2.122-.33.025-.61-.256-.854-.841-.622-1.598-1.293-4.683-2.012-9.256a1.039 1.039 0 0 1 .195-.817Zm26.208 1.914c-.44-.768-1.086-1.232-1.952-1.415a3.2 3.2 0 0 0-.658-.073c-1.17 0-2.122.61-2.866 1.83-.634 1.036-.951 2.183-.951 3.439 0 .939.195 1.744.585 2.414.44.769 1.086 1.232 1.951 1.415a3.2 3.2 0 0 0 .659.073c1.183 0 2.134-.61 2.866-1.83a6.535 6.535 0 0 0 .951-3.45c.012-.951-.195-1.744-.585-2.403Zm-1.537 3.378c-.17.805-.476 1.403-.927 1.805-.353.317-.683.451-.988.39-.292-.06-.536-.317-.719-.792a3.094 3.094 0 0 1-.22-1.11c0-.305.025-.61.086-.89.11-.5.317-.988.646-1.451.403-.598.83-.842 1.268-.757.293.061.537.317.72.793.146.378.22.756.22 1.11 0 .317-.025.622-.086.902Zm-6.098-3.378c-.439-.768-1.097-1.232-1.95-1.415a3.2 3.2 0 0 0-.66-.073c-1.17 0-2.121.61-2.865 1.83-.634 1.036-.951 2.183-.951 3.439 0 .939.195 1.744.585 2.414.44.769 1.085 1.232 1.951 1.415a3.2 3.2 0 0 0 .659.073c1.183 0 2.134-.61 2.866-1.83a6.534 6.534 0 0 0 .95-3.45c0-.951-.194-1.744-.585-2.403Zm-1.548 3.378c-.171.805-.476 1.403-.927 1.805-.354.317-.683.451-.988.39-.293-.06-.537-.317-.72-.792a3.094 3.094 0 0 1-.219-1.11c0-.305.024-.61.085-.89.11-.5.317-.988.647-1.451.402-.598.829-.842 1.268-.757.293.061.537.317.72.793.146.378.22.756.22 1.11.011.317-.025.622-.086.902Z" fill="#6736A1"/></g><defs><clipPath id="a"><path fill="#fff" transform="translate(5 19)" d="M0 0h30v17.93H0z"/></clipPath></defs></svg>