<svg width="150" height="150" fill="none" xmlns="http://www.w3.org/2000/svg"><rect width="150" height="150" rx="75" fill="#fff"/><path fill-rule="evenodd" clip-rule="evenodd" d="M75 150c41.421 0 75-33.579 75-75S116.421 0 75 0 0 33.579 0 75s33.579 75 75 75Zm.323-112.5c-6.022 0-14.356 3.444-18.614 7.692L45.142 56.731h57.647L122.066 37.5H75.323Zm17.871 67.308c-4.258 4.248-12.592 7.692-18.614 7.692H27.837l19.276-19.23h57.647l-11.566 11.538Zm18.736-38.462H35.526l-3.61 3.606c-8.545 7.692-6.01 13.702 5.958 13.702h76.611l3.61-3.606c8.462-7.647 5.803-13.702-6.165-13.702Z" fill="#2D64FB"/></svg>