<svg width="189" height="28" fill="none" xmlns="http://www.w3.org/2000/svg"><path d="m34.04 19.575 1.127-1.626c.518.586 1.207 1.08 2.066 1.48.86.4 1.764.6 2.711.6 1.084 0 1.93-.23 2.535-.688.615-.46.923-1.06.923-1.802a1.59 1.59 0 0 0-.498-1.187c-.332-.322-.762-.57-1.29-.747a19.143 19.143 0 0 0-1.743-.483 29.496 29.496 0 0 1-1.92-.513 9.714 9.714 0 0 1-1.743-.717 3.454 3.454 0 0 1-1.29-1.202c-.332-.527-.498-1.152-.498-1.875 0-1.191.479-2.182 1.436-2.973.957-.801 2.271-1.201 3.942-1.201 2.207 0 3.995.703 5.362 2.109l-1.04 1.553c-.45-.547-1.055-.987-1.817-1.319-.752-.341-1.587-.512-2.505-.512-.968 0-1.744.22-2.33.659-.586.43-.88.971-.88 1.626 0 .42.167.776.499 1.07.332.282.757.507 1.275.673.527.156 1.108.308 1.743.454.645.137 1.285.308 1.92.513a8.621 8.621 0 0 1 1.743.761c.528.293.958.718 1.29 1.275.332.557.498 1.216.498 1.977 0 1.27-.498 2.32-1.494 3.15-.987.82-2.38 1.23-4.176 1.23-2.433 0-4.382-.761-5.847-2.285ZM47.419 17.231V7.007h2.242v9.536c0 1.21.278 2.065.835 2.563.556.489 1.367.733 2.432.733.84 0 1.65-.21 2.432-.63.782-.42 1.392-.938 1.832-1.553V7.006h2.257v14.488h-2.257v-2.036c-.606.684-1.363 1.255-2.271 1.714a6.315 6.315 0 0 1-2.887.688c-3.077 0-4.615-1.543-4.615-4.629ZM62.146 21.494V7.007h2.242V9.32a7.53 7.53 0 0 1 2.183-1.919 5.147 5.147 0 0 1 2.653-.732v2.314a8.137 8.137 0 0 0-.865-.058c-.694 0-1.446.239-2.256.718-.811.468-1.383 1-1.715 1.596v10.254h-2.242ZM69.401 14.229c0-1.387.303-2.657.909-3.81a7.037 7.037 0 0 1 2.564-2.753c1.094-.684 2.32-1.025 3.678-1.025 1.426 0 2.671.346 3.736 1.04a6.501 6.501 0 0 1 2.403 2.798c.547 1.162.82 2.475.82 3.94v.571H71.805c.088 1.426.596 2.617 1.524 3.574.938.957 2.159 1.436 3.663 1.436.85 0 1.666-.161 2.447-.483a6.083 6.083 0 0 0 2.066-1.377l1.07 1.465c-1.534 1.503-3.453 2.255-5.759 2.255-2.168 0-3.946-.708-5.333-2.124-1.387-1.416-2.08-3.252-2.08-5.508Zm2.374-.923h9.51a5.165 5.165 0 0 0-.308-1.656 5.252 5.252 0 0 0-.835-1.538c-.372-.478-.87-.864-1.495-1.157-.625-.303-1.333-.454-2.125-.454-.742 0-1.416.146-2.022.44a4.184 4.184 0 0 0-1.48 1.157 5.868 5.868 0 0 0-.879 1.538 5.288 5.288 0 0 0-.366 1.67ZM93.2 21.747V9.552h4.367V6.74H85.594v2.812h4.389v12.195H93.2ZM111.342 21.747l-3.399-5.715c1.621-.382 3.309-1.822 3.309-4.455 0-2.79-1.936-4.837-5.064-4.837h-7.022v15.007h3.196v-5.332h2.34l2.949 5.332h3.691Zm-5.604-8.145h-3.376v-4.05h3.376c1.26 0 2.228.765 2.228 2.003 0 1.282-.968 2.047-2.228 2.047ZM116.374 21.747V6.74h-3.196v15.007h3.196ZM126.196 22.017c2.701 0 4.839-1.102 6.369-2.812v-5.76h-7.157v2.79h3.961v1.8c-.607.562-1.845 1.147-3.173 1.147-2.746 0-4.726-2.092-4.726-4.927 0-2.835 1.98-4.928 4.726-4.928 1.575 0 2.858.9 3.556 1.958l2.633-1.44c-1.125-1.778-3.083-3.353-6.189-3.353-4.411 0-8.012 3.015-8.012 7.763 0 4.725 3.601 7.762 8.012 7.762ZM141.944 22.017c2.701 0 4.839-1.102 6.37-2.812v-5.76h-7.157v2.79h3.961v1.8c-.608.562-1.846 1.147-3.174 1.147-2.745 0-4.726-2.092-4.726-4.927 0-2.835 1.981-4.928 4.726-4.928 1.576 0 2.859.9 3.556 1.958l2.634-1.44c-1.126-1.778-3.084-3.353-6.19-3.353-4.411 0-8.012 3.015-8.012 7.763 0 4.725 3.601 7.762 8.012 7.762ZM161.024 21.747v-2.812h-7.427v-3.42h7.269v-2.813h-7.269v-3.15h7.427V6.74h-10.623v15.007h10.623ZM175.248 21.747l-3.399-5.715c1.621-.382 3.309-1.822 3.309-4.455 0-2.79-1.936-4.837-5.064-4.837h-7.022v15.007h3.196v-5.332h2.34l2.949 5.332h3.691Zm-5.604-8.145h-3.376v-4.05h3.376c1.26 0 2.228.765 2.228 2.003 0 1.282-.968 2.047-2.228 2.047ZM182.44 22.017c4.029 0 6.01-2.07 6.01-4.815 0-5.602-8.62-4.005-8.62-6.367 0-.9.765-1.485 2.115-1.485 1.531 0 3.151.517 4.367 1.642l1.778-2.385c-1.486-1.372-3.466-2.092-5.852-2.092-3.534 0-5.694 2.07-5.694 4.567 0 5.648 8.642 3.825 8.642 6.435 0 .878-.832 1.665-2.61 1.665-2.071 0-3.714-.945-4.772-2.047l-1.755 2.497c1.418 1.418 3.488 2.385 6.391 2.385Z" fill="#1F2937"/><path fill-rule="evenodd" clip-rule="evenodd" d="M14.004 28c7.734 0 14.004-6.268 14.004-14S21.738 0 14.004 0 0 6.268 0 14s6.27 14 14.004 14Zm.06-21c-1.124 0-2.68.643-3.475 1.436l-2.16 2.154h10.764l3.6-3.59h-8.729Zm3.337 12.564C16.606 20.357 15.05 21 13.926 21H5.198l3.599-3.59H19.56l-2.16 2.154Zm3.499-7.18H6.633l-.673.674c-1.596 1.436-1.123 2.557 1.112 2.557h14.305l.674-.673c1.58-1.427 1.083-2.557-1.151-2.557Z" fill="#2D64FB"/></svg>